<?xml version="1.0" standalone="no"?><!DOCTYPE svg PUBLIC "-//W3C//DTD SVG 1.1//EN" "http://www.w3.org/Graphics/SVG/1.1/DTD/svg11.dtd"><svg t="1521684731930" class="icon" style="" viewBox="0 0 1024 1024" version="1.1" xmlns="http://www.w3.org/2000/svg" p-id="7099" xmlns:xlink="http://www.w3.org/1999/xlink" width="16" height="16"><defs><style type="text/css"></style></defs><path d="M992 966.4c-12.8 12.8-32 12.8-44.8 0l-217.6-217.6c-64 57.6-153.6 89.6-249.6 89.6-211.2 0-384-172.8-384-384s172.8-384 384-384 384 172.8 384 384c0 96-38.4 179.2-89.6 243.2l217.6 217.6c12.8 19.2 12.8 38.4 0 51.2z m-262.4-313.6c44.8-57.6 70.4-121.6 70.4-198.4 0-179.2-140.8-320-320-320s-320 140.8-320 320 140.8 320 320 320c76.8 0 147.2-25.6 204.8-70.4" p-id="7100" fill="#504f4f"></path></svg>