<?xml version="1.0" standalone="no"?><!DOCTYPE svg PUBLIC "-//W3C//DTD SVG 1.1//EN" "http://www.w3.org/Graphics/SVG/1.1/DTD/svg11.dtd"><svg t="1527751648854" class="icon" style="" viewBox="0 0 1024 1024" version="1.1" xmlns="http://www.w3.org/2000/svg" p-id="4086" xmlns:xlink="http://www.w3.org/1999/xlink" width="16" height="16"><defs><style type="text/css"></style></defs><path d="M661.426 966.477a31.997 31.997 0 0 1-24.884-11.875 163.118 163.118 0 0 0-11.407-12.681c-62.383-62.384-163.89-62.385-226.273 0a162.692 162.692 0 0 0-11.404 12.679 32 32 0 0 1-35.55 10.043 477.718 477.718 0 0 1-151.83-87.807 32 32 0 0 1-9.072-35.775 162.867 162.867 0 0 0 5.24-16.12 158.955 158.955 0 0 0-15.985-121.413 158.948 158.948 0 0 0-97.153-74.547 162.689 162.689 0 0 0-16.64-3.53 32 32 0 0 1-26.47-25.799 484.234 484.234 0 0 1 0-175.304A32 32 0 0 1 66.47 398.55a162.906 162.906 0 0 0 16.64-3.53 158.953 158.953 0 0 0 97.153-74.548 158.955 158.955 0 0 0 15.984-121.412 162.76 162.76 0 0 0-5.24-16.118 32 32 0 0 1 9.071-35.777A477.694 477.694 0 0 1 351.91 59.357 32 32 0 0 1 387.457 69.4a163.118 163.118 0 0 0 11.407 12.681c62.383 62.382 163.889 62.383 226.273 0a163.224 163.224 0 0 0 11.406-12.68 32.003 32.003 0 0 1 35.548-10.042 477.705 477.705 0 0 1 151.831 87.807 32 32 0 0 1 9.072 35.774 162.79 162.79 0 0 0-5.24 16.122c-22.834 85.218 27.919 173.125 113.137 195.96a163.048 163.048 0 0 0 16.644 3.53A32 32 0 0 1 984 424.35a484.236 484.236 0 0 1 0 175.303 32 32 0 0 1-26.47 25.8 162.681 162.681 0 0 0-16.64 3.53A160 160 0 0 0 827.754 824.94a162.92 162.92 0 0 0 5.24 16.122 32 32 0 0 1-9.071 35.774 477.7 477.7 0 0 1-151.832 87.808 31.965 31.965 0 0 1-10.664 1.833zM511.999 831.059a222.534 222.534 0 0 1 158.392 65.607l0.092 0.093a413.206 413.206 0 0 0 95.457-55.233l-0.006-0.021a224 224 0 0 1 158.392-274.342l0.043-0.012a420.693 420.693 0 0 0 0-110.3l-0.043-0.012a223.999 223.999 0 0 1-158.391-274.342l0.006-0.022a413.248 413.248 0 0 0-95.458-55.232l-0.09 0.09A222.533 222.533 0 0 1 512 192.943a222.53 222.53 0 0 1-158.392-65.609l-0.092-0.092a413.196 413.196 0 0 0-95.456 55.233l0.005 0.02a222.534 222.534 0 0 1-22.377 169.976A222.535 222.535 0 0 1 99.673 456.839l-0.043 0.01a420.693 420.693 0 0 0 0 110.301l0.043 0.011A222.534 222.534 0 0 1 235.687 671.53a222.534 222.534 0 0 1 22.378 169.976l-0.006 0.021a413.268 413.268 0 0 0 95.456 55.233l0.091-0.091a222.533 222.533 0 0 1 158.393-65.61z" p-id="4087" fill="#7d7d7d"></path><path d="M512 704c-105.87 0-192-86.13-192-192s86.13-192 192-192 192 86.13 192 192-86.13 192-192 192z m0-320a128 128 0 1 0 128 128 128.145 128.145 0 0 0-128-128z" p-id="4088" fill="#7d7d7d"></path></svg>