<?xml version="1.0" standalone="no"?><!DOCTYPE svg PUBLIC "-//W3C//DTD SVG 1.1//EN" "http://www.w3.org/Graphics/SVG/1.1/DTD/svg11.dtd"><svg t="1516957926055" class="icon" style="" viewBox="0 0 1024 1024" version="1.1" xmlns="http://www.w3.org/2000/svg" p-id="8948" xmlns:xlink="http://www.w3.org/1999/xlink" width="16" height="16"><defs><style type="text/css"></style></defs><path d="M512 64C264.96 64 64 264.96 64 512s200.96 448 448 448 448-200.96 448-448S759.04 64 512 64z m0 768.353c-26.496 0-48-21.505-48-48 0-26.497 21.504-48.001 48-48.001s48 21.504 48 48-21.504 48-48 48z m88.576-327.168c-27.84 27.808-56.575 56.544-56.575 82.368v54.112c0 17.665-14.336 32.001-32.001 32.001s-32-14.336-32-32v-54.113c0-52.353 39.999-92.352 75.327-127.648 25.887-25.887 52.672-52.64 52.672-73.984 0-53.343-43.072-96.735-95.999-96.735-53.823 0-96 41.536-96 94.56 0 17.664-14.335 31.999-32 31.999s-32-14.337-32-32c0-87.424 71.774-158.559 160-158.559s160 72.095 160 160.735c0 47.87-36.32 84.16-71.424 119.264z" p-id="8949" fill="#7d7d7d"></path></svg>